<?xml version="1.0" encoding="utf-8"?>
<!-- Generator: Adobe Illustrator 19.0.0, SVG Export Plug-In . SVG Version: 6.00 Build 0)  -->
<svg version="1.1" id="Layer_1" xmlns="http://www.w3.org/2000/svg" xmlns:xlink="http://www.w3.org/1999/xlink" x="0px" y="0px"
	 viewBox="-77 272.6 456.7 248.4" style="enable-background:new -77 272.6 456.7 248.4;" xml:space="preserve">
<style type="text/css">
	.st0{fill:#1F3A53;}
	.st1{fill:none;}
	.st2{display:none;}
	.st3{display:inline;}
	.st4{font-family:'ArialMT';}
	.st5{font-size:47px;}
	.st6{letter-spacing:8;}
	.st7{letter-spacing:3;}
</style>
<g id="p2">
	<g>
		<circle class="st0" cx="-48.1" cy="341.1" r="8.5"/>
		<circle class="st0" cx="51.9" cy="321.1" r="8.5"/>
		<circle class="st0" cx="131.9" cy="341.1" r="8.5"/>
		<circle class="st0" cx="91.9" cy="321.1" r="8.5"/>
		<circle class="st0" cx="131.9" cy="381.1" r="8.5"/>
		<circle class="st0" cx="191.9" cy="401.1" r="8.5"/>
		<circle class="st0" cx="251.9" cy="421.1" r="8.5"/>
		<circle class="st0" cx="71.9" cy="341.1" r="8.5"/>
		<circle class="st0" cx="71.9" cy="381.1" r="8.5"/>
		<circle class="st0" cx="-28.1" cy="361.1" r="8.5"/>
		<circle class="st0" cx="-8.1" cy="421.1" r="8.5"/>
		<circle class="st0" cx="-48.1" cy="401.1" r="8.5"/>
		<circle class="st0" cx="51.9" cy="401.1" r="8.5"/>
		<circle class="st0" cx="331.9" cy="461.1" r="8.5"/>
		<circle class="st0" cx="-28.1" cy="461.1" r="8.5"/>
		<circle class="st0" cx="171.9" cy="381.1" r="8.5"/>
		<circle class="st0" cx="191.9" cy="301.1" r="8.5"/>
		<circle class="st0" cx="151.9" cy="441.1" r="8.5"/>
		<circle class="st0" cx="271.9" cy="381.1" r="8.5"/>
		<circle class="st0" cx="291.9" cy="321.1" r="8.5"/>
		<circle class="st0" cx="331.9" cy="361.1" r="8.5"/>
		<circle class="st0" cx="311.9" cy="421.1" r="8.5"/>
		<circle class="st0" cx="-28.1" cy="301.1" r="8.5"/>
		<circle class="st0" cx="31.9" cy="281.1" r="8.5"/>
	</g>
	<g>
		<circle class="st0" cx="-48.1" cy="361.1" r="8.5"/>
		<circle class="st0" cx="51.9" cy="361.1" r="8.5"/>
		<circle class="st0" cx="51.9" cy="381.1" r="8.5"/>
		<circle class="st0" cx="111.9" cy="341.1" r="8.5"/>
		<circle class="st0" cx="171.9" cy="281.1" r="8.5"/>
		<circle class="st0" cx="191.9" cy="381.1" r="8.5"/>
		<circle class="st0" cx="191.9" cy="441.1" r="8.5"/>
		<circle class="st0" cx="371.9" cy="441.1" r="8.5"/>
		<circle class="st0" cx="351.9" cy="421.1" r="8.5"/>
		<circle class="st0" cx="-8.1" cy="401.1" r="8.5"/>
		<circle class="st0" cx="131.9" cy="441.1" r="8.5"/>
		<circle class="st0" cx="51.9" cy="461.1" r="8.5"/>
		<circle class="st0" cx="351.9" cy="321.1" r="8.5"/>
		<circle class="st0" cx="291.9" cy="361.1" r="8.5"/>
		<circle class="st0" cx="191.9" cy="321.1" r="8.5"/>
		<circle class="st0" cx="151.9" cy="361.1" r="8.5"/>
		<circle class="st0" cx="131.9" cy="301.1" r="8.5"/>
		<circle class="st0" cx="271.9" cy="401.1" r="8.5"/>
		<circle class="st0" cx="311.9" cy="401.1" r="8.5"/>
		<circle class="st0" cx="271.9" cy="341.1" r="8.5"/>
		<circle class="st0" cx="291.9" cy="301.1" r="8.5"/>
		<circle class="st0" cx="311.9" cy="321.1" r="8.5"/>
		<circle class="st0" cx="311.9" cy="341.1" r="8.5"/>
		<circle class="st0" cx="331.9" cy="381.1" r="8.5"/>
		<circle class="st0" cx="-48.1" cy="301.1" r="8.5"/>
		<circle class="st0" cx="-8.1" cy="441.1" r="8.5"/>
		<circle class="st0" cx="31.9" cy="421.1" r="8.5"/>
	</g>
	<g>
		<circle class="st0" cx="-68.1" cy="321.1" r="8.5"/>
		<circle class="st0" cx="-48.1" cy="381.1" r="8.5"/>
		<circle class="st0" cx="31.9" cy="341.1" r="8.5"/>
		<circle class="st0" cx="111.9" cy="361.1" r="8.5"/>
		<circle class="st0" cx="111.9" cy="321.1" r="8.5"/>
		<circle class="st0" cx="131.9" cy="361.1" r="8.5"/>
		<circle class="st0" cx="191.9" cy="421.1" r="8.5"/>
		<circle class="st0" cx="131.9" cy="321.1" r="8.5"/>
		<circle class="st0" cx="291.9" cy="341.1" r="8.5"/>
		<circle class="st0" cx="251.9" cy="401.1" r="8.5"/>
		<circle class="st0" cx="251.9" cy="441.1" r="8.5"/>
		<circle class="st0" cx="371.9" cy="421.1" r="8.5"/>
		<circle class="st0" cx="351.9" cy="401.1" r="8.5"/>
		<circle class="st0" cx="351.9" cy="381.1" r="8.5"/>
		<circle class="st0" cx="371.9" cy="341.1" r="8.5"/>
		<circle class="st0" cx="351.9" cy="441.1" r="8.5"/>
		<circle class="st0" cx="71.9" cy="361.1" r="8.5"/>
		<circle class="st0" cx="71.9" cy="321.1" r="8.5"/>
		<circle class="st0" cx="-28.1" cy="341.1" r="8.5"/>
		<circle class="st0" cx="-28.1" cy="321.1" r="8.5"/>
		<circle class="st0" cx="-28.1" cy="381.1" r="8.5"/>
		<circle class="st0" cx="-28.1" cy="421.1" r="8.5"/>
		<circle class="st0" cx="71.9" cy="401.1" r="8.5"/>
		<circle class="st0" cx="111.9" cy="421.1" r="8.5"/>
		<circle class="st0" cx="171.9" cy="441.1" r="8.5"/>
		<circle class="st0" cx="191.9" cy="461.1" r="8.5"/>
		<circle class="st0" cx="131.9" cy="421.1" r="8.5"/>
		<circle class="st0" cx="111.9" cy="421.1" r="8.5"/>
		<circle class="st0" cx="91.9" cy="441.1" r="8.5"/>
		<circle class="st0" cx="171.9" cy="361.1" r="8.5"/>
		<circle class="st0" cx="211.9" cy="401.1" r="8.5"/>
		<circle class="st0" cx="211.9" cy="421.1" r="8.5"/>
		<circle class="st0" cx="211.9" cy="321.1" r="8.5"/>
		<circle class="st0" cx="231.9" cy="281.1" r="8.5"/>
		<circle class="st0" cx="171.9" cy="301.1" r="8.5"/>
		<circle class="st0" cx="151.9" cy="381.1" r="8.5"/>
		<circle class="st0" cx="151.9" cy="301.1" r="8.5"/>
		<circle class="st0" cx="291.9" cy="401.1" r="8.5"/>
		<circle class="st0" cx="331.9" cy="401.1" r="8.5"/>
		<circle class="st0" cx="231.9" cy="361.1" r="8.5"/>
		<circle class="st0" cx="271.9" cy="361.1" r="8.5"/>
		<circle class="st0" cx="311.9" cy="301.1" r="8.5"/>
		<circle class="st0" cx="271.9" cy="301.1" r="8.5"/>
		<circle class="st0" cx="331.9" cy="341.1" r="8.5"/>
		<circle class="st0" cx="271.9" cy="421.1" r="8.5"/>
		<circle class="st0" cx="231.9" cy="441.1" r="8.5"/>
		<circle class="st0" cx="71.9" cy="301.1" r="8.5"/>
		<circle class="st0" cx="51.9" cy="301.1" r="8.5"/>
		<circle class="st0" cx="-68.1" cy="281.1" r="8.5"/>
		<circle class="st0" cx="351.9" cy="281.1" r="8.5"/>
		<circle class="st0" cx="51.9" cy="421.1" r="8.5"/>
		<circle class="st0" cx="-68.1" cy="441.1" r="8.5"/>
		<circle class="st0" cx="31.9" cy="441.1" r="8.5"/>
		<circle class="st0" cx="11.9" cy="421.1" r="8.5"/>
		<circle class="st0" cx="11.9" cy="441.1" r="8.5"/>
	</g>
	<rect x="-175" y="174.4" class="st1" width="653.4" height="451.3"/>
	<g>
		<path class="st0" d="M185.3,515.2c0,2.8-2.3,5.1-5.1,5.1c-2.8,0-5.1-2.3-5.1-5.1s2.3-5.1,5.1-5.1C183,510,185.3,512.3,185.3,515.2
			"/>
		<path class="st0" d="M180.2,521c-3.2,0-5.9-2.6-5.9-5.9c0-3.2,2.6-5.9,5.9-5.9c3.2,0,5.9,2.6,5.9,5.9
			C186.1,518.4,183.5,521,180.2,521z M180.2,510.8c-2.4,0-4.4,2-4.4,4.4c0,2.4,2,4.4,4.4,4.4s4.4-2,4.4-4.4
			C184.6,512.7,182.6,510.8,180.2,510.8z"/>
	</g>
	<g>
		<path class="st0" d="M253.3,515.2c0,2.8-2.3,5.1-5.1,5.1c-2.8,0-5.1-2.3-5.1-5.1s2.3-5.1,5.1-5.1C251,510,253.3,512.3,253.3,515.2
			"/>
		<path class="st0" d="M248.2,521c-3.2,0-5.9-2.6-5.9-5.9c0-3.2,2.6-5.9,5.9-5.9c3.2,0,5.9,2.6,5.9,5.9
			C254.1,518.4,251.5,521,248.2,521z M248.2,510.8c-2.4,0-4.4,2-4.4,4.4c0,2.4,2,4.4,4.4,4.4s4.4-2,4.4-4.4
			C252.6,512.7,250.6,510.8,248.2,510.8z"/>
	</g>
	<g>
		<path class="st0" d="M3,503.3L3,503.3c0-9.3,7-17.1,17-17.1c4.9,0,8.2,1.2,11.2,3.3c0.6,0.4,1.2,1.2,1.2,2.3
			c0,1.6-1.3,2.9-2.9,2.9c-0.8,0-1.3-0.3-1.8-0.7c-2.1-1.6-4.4-2.6-8-2.6C13.6,491.4,9,496.7,9,503v0.1c0,6.8,4.5,11.8,11.2,11.8
			c3.1,0,5.9-1,7.9-2.5v-6.2h-6.5c-1.4,0-2.6-1.1-2.6-2.5s1.2-2.5,2.6-2.5h9.2c1.6,0,2.9,1.3,2.9,2.9v8.8c0,1.6-0.7,2.8-2,3.7
			c-2.8,1.9-6.8,3.6-11.7,3.6C9.8,520.2,3,512.9,3,503.3z"/>
		<path class="st0" d="M39.4,507.4L39.4,507.4c0-7.2,5.6-13.1,13.3-13.1c7.6,0,13.2,5.8,13.2,12.9v0.1c0,7-5.6,12.9-13.3,12.9
			C45,520.2,39.4,514.4,39.4,507.4z M60.2,507.4L60.2,507.4c0-4.5-3.1-8.1-7.6-8.1c-4.6,0-7.5,3.6-7.5,7.9v0.1
			c0,4.3,3.1,7.9,7.6,7.9C57.3,515.2,60.2,511.6,60.2,507.4z"/>
		<path class="st0" d="M71.8,505.7v-16.3c0-1.6,1.3-2.9,2.9-2.9c1.6,0,2.9,1.3,2.9,2.9v16.1c0,6.1,3.1,9.4,8.3,9.4
			c5.1,0,8.3-3.1,8.3-9.1v-16.3c0-1.6,1.3-2.9,2.9-2.9c1.6,0,2.9,1.3,2.9,2.9v16c0,9.8-5.5,14.8-14.1,14.8
			C77.2,520.1,71.8,515.2,71.8,505.7z"/>
		<path class="st0" d="M105.2,516c-0.7-0.5-1.1-1.3-1.1-2.2c0-1.5,1.2-2.7,2.7-2.7c0.8,0,1.3,0.2,1.7,0.5c2.7,2.2,5.6,3.4,9.2,3.4
			c3.6,0,5.8-1.7,5.8-4.1v-0.1c0-2.3-1.3-3.6-7.4-5c-7-1.7-11-3.8-11-9.8v-0.1c0-5.6,4.7-9.5,11.2-9.5c4.1,0,7.5,1.1,10.4,3.1
			c0.7,0.4,1.3,1.2,1.3,2.3c0,1.5-1.2,2.7-2.7,2.7c-0.6,0-1-0.1-1.5-0.4c-2.5-1.6-5-2.5-7.6-2.5c-3.4,0-5.4,1.7-5.4,3.9v0.1
			c0,2.5,1.5,3.7,7.8,5.2c7,1.7,10.5,4.2,10.5,9.6v0.1c0,6.2-4.8,9.8-11.7,9.8C113.1,520.1,108.9,518.7,105.2,516z"/>
		<path class="st0" d="M132.8,515.9l12.2-27.3c0.7-1.5,1.8-2.4,3.5-2.4h0.3c1.6,0,2.8,0.9,3.4,2.4l12.2,27.3
			c0.2,0.4,0.3,0.8,0.3,1.2c0,1.6-1.2,2.8-2.7,2.8c-1.4,0-2.3-0.8-2.8-2l-2.7-6.2h-16l-2.8,6.3c-0.5,1.2-1.5,1.8-2.7,1.8
			c-1.5,0-2.7-1.2-2.7-2.7C132.4,516.8,132.6,516.3,132.8,515.9z M154.3,506.6l-5.8-13.3l-5.8,13.3H154.3z"/>
		<path class="st0" d="M192.7,507.4L192.7,507.4c0-7.2,5.6-13.1,13.3-13.1s13.2,5.8,13.2,12.9v0.1c0,7-5.6,12.9-13.3,12.9
			C198.3,520.2,192.7,514.4,192.7,507.4z M213.5,507.4L213.5,507.4c0-4.5-3.1-8.1-7.6-8.1c-4.6,0-7.5,3.6-7.5,7.9v0.1
			c0,4.3,3.1,7.9,7.6,7.9C210.6,515.2,213.5,511.6,213.5,507.4z"/>
		<path class="st0" d="M224.9,497.4c0-1.6,1.2-2.9,2.8-2.9s2.9,1.3,2.9,2.9v2.5c1.3-3.1,3.8-5.5,6.3-5.5c1.8,0,2.8,1.2,2.8,2.8
			c0,1.5-1,2.5-2.3,2.7c-4,0.7-6.8,3.8-6.8,9.7v7.3c0,1.6-1.3,2.8-2.9,2.8s-2.8-1.2-2.8-2.8V497.4z"/>
		<path class="st0" d="M263,487.9c0-1.6,1.2-2.8,2.8-2.8s2.9,1.3,2.9,2.8v18.3l10.7-10.5c0.8-0.8,1.5-1.2,2.4-1.2
			c1.5,0,2.5,1.2,2.5,2.6c0,0.9-0.5,1.6-1.3,2.4l-6.6,6.1l7.5,9.8c0.5,0.7,0.8,1.2,0.8,1.9c0,1.6-1.2,2.6-2.7,2.6
			c-1.1,0-1.8-0.4-2.5-1.3l-7.1-9.4l-3.8,3.6v4.3c0,1.6-1.3,2.8-2.9,2.8s-2.8-1.2-2.8-2.8v-29.2H263z"/>
		<path class="st0" d="M289.9,497.4c0-1.6,1.2-2.9,2.8-2.9c1.6,0,2.9,1.3,2.9,2.9v2.5c1.3-3.1,3.8-5.5,6.3-5.5
			c1.8,0,2.8,1.2,2.8,2.8c0,1.5-1,2.5-2.3,2.7c-4,0.7-6.8,3.8-6.8,9.7v7.3c0,1.6-1.3,2.8-2.9,2.8s-2.8-1.2-2.8-2.8V497.4z"/>
	</g>
</g>
<g id="editable" class="st2">
	<text transform="matrix(1 0 0 1 28.3161 519.6234)" class="st3 st4 st5">Go</text>
	<text transform="matrix(1 0 0 1 85.2161 519.6234)" class="st3 st4 st5">U</text>
	<text transform="matrix(1 0 0 1 113.8161 519.6234)" class="st3 st4 st5">S</text>
	<text transform="matrix(1 0 0 1 135.5161 519.6234)" class="st3 st4 st5">A</text>
	<text transform="matrix(1 0 0 1 164.6161 519.6234)" class="st3 st4 st5 st6"> </text>
	<text transform="matrix(1 0 0 1 183.9161 519.6234)" class="st3 st4 st5">or</text>
	<text transform="matrix(1 0 0 1 225.8161 519.6234)" class="st3 st4 st5 st7"> </text>
	<text transform="matrix(1 0 0 1 239.9161 519.6234)" class="st3 st4 st5">kr</text>
</g>
</svg>
